<svg xmlns="http://www.w3.org/2000/svg" xmlns:xlink="http://www.w3.org/1999/xlink" width="500" zoomAndPan="magnify" viewBox="0 0 375 374.999991" height="500" preserveAspectRatio="xMidYMid meet" version="1.0"><defs><g/><clipPath id="e942b102c0"><path d="M 62.277344 35.199219 L 375 35.199219 L 375 347.921875 L 62.277344 347.921875 Z M 62.277344 35.199219 " clip-rule="nonzero"/></clipPath><clipPath id="4464feb33b"><path d="M 0.277344 0.199219 L 313 0.199219 L 313 312.921875 L 0.277344 312.921875 Z M 0.277344 0.199219 " clip-rule="nonzero"/></clipPath><clipPath id="37bfd5f67d"><rect x="0" width="313" y="0" height="313"/></clipPath><clipPath id="af6c94c1b2"><path d="M 0 24.550781 L 65.882812 24.550781 L 65.882812 347.800781 L 0 347.800781 Z M 0 24.550781 " clip-rule="nonzero"/></clipPath><clipPath id="3f251244ad"><path d="M 0 1 L 65.882812 1 L 65.882812 323 L 0 323 Z M 0 1 " clip-rule="nonzero"/></clipPath><clipPath id="35d0cd124b"><rect x="0" width="66" y="0" height="324"/></clipPath><clipPath id="3eadb7e6f7"><path d="M 51.175781 24.550781 L 363.898438 24.550781 L 363.898438 337.273438 L 51.175781 337.273438 Z M 51.175781 24.550781 " clip-rule="nonzero"/></clipPath><clipPath id="a457f3b10d"><path d="M 0.175781 0.550781 L 312.898438 0.550781 L 312.898438 313.273438 L 0.175781 313.273438 Z M 0.175781 0.550781 " clip-rule="nonzero"/></clipPath><clipPath id="780ec2b02b"><rect x="0" width="313" y="0" height="314"/></clipPath><clipPath id="3bde1868b8"><rect x="0" width="222" y="0" height="272"/></clipPath><clipPath id="e53ea3e1bd"><rect x="0" width="158" y="0" height="274"/></clipPath><clipPath id="f75a3387e1"><rect x="0" width="190" y="0" height="35"/></clipPath></defs><g clip-path="url(#e942b102c0)"><g transform="matrix(1, 0, 0, 1, 62, 35)"><g clip-path="url(#37bfd5f67d)"><g clip-path="url(#4464feb33b)"><path fill="#8ee4af" d="M 0.277344 0.199219 L 313 0.199219 L 313 312.921875 L 0.277344 312.921875 Z M 0.277344 0.199219 " fill-opacity="1" fill-rule="nonzero"/></g></g></g></g><g clip-path="url(#af6c94c1b2)"><g transform="matrix(1, 0, 0, 1, 0, 24)"><g clip-path="url(#35d0cd124b)"><g clip-path="url(#3f251244ad)"><path fill="#379683" d="M 20.042969 322.230469 C 19.46875 322.410156 18.882812 322.554688 18.289062 322.667969 C 17.699219 322.777344 17.101562 322.855469 16.5 322.898438 C 15.898438 322.9375 15.292969 322.945312 14.691406 322.914062 C 14.089844 322.886719 13.492188 322.820312 12.894531 322.722656 C 12.300781 322.621094 11.714844 322.488281 11.136719 322.320312 C 10.554688 322.152344 9.988281 321.949219 9.433594 321.714844 C 8.878906 321.480469 8.335938 321.214844 7.8125 320.917969 C 7.289062 320.617188 6.78125 320.289062 6.296875 319.933594 C 5.8125 319.578125 5.347656 319.191406 4.90625 318.78125 C 4.464844 318.367188 4.050781 317.933594 3.660156 317.472656 C 3.269531 317.011719 2.910156 316.53125 2.574219 316.027344 C 2.242188 315.527344 1.9375 315.007812 1.667969 314.46875 C 1.394531 313.929688 1.152344 313.378906 0.945312 312.8125 C 0.738281 312.246094 0.5625 311.667969 0.421875 311.082031 C 0.285156 310.496094 0.179688 309.902344 0.105469 309.304688 C 0.0351562 308.703125 0 308.101562 0 307.5 L 0 27.953125 C 0 27.132812 0.0625 26.320312 0.191406 25.515625 C 0.316406 24.707031 0.507812 23.914062 0.761719 23.140625 C 1.015625 22.363281 1.328125 21.609375 1.703125 20.882812 C 2.074219 20.15625 2.503906 19.460938 2.984375 18.804688 C 3.46875 18.144531 4 17.527344 4.582031 16.953125 C 5.164062 16.378906 5.785156 15.851562 6.449219 15.375 C 7.113281 14.902344 7.8125 14.480469 8.542969 14.113281 C 9.273438 13.75 10.03125 13.445312 10.808594 13.199219 C 20.3125 10.246094 34.320312 5.871094 45.808594 2.265625 C 46.386719 2.085938 46.972656 1.9375 47.566406 1.828125 C 48.160156 1.714844 48.757812 1.636719 49.359375 1.59375 C 49.960938 1.550781 50.566406 1.542969 51.167969 1.574219 C 51.773438 1.601562 52.371094 1.664062 52.96875 1.765625 C 53.566406 1.863281 54.152344 1.996094 54.734375 2.164062 C 55.3125 2.332031 55.882812 2.535156 56.4375 2.769531 C 56.996094 3.003906 57.539062 3.269531 58.0625 3.566406 C 58.589844 3.867188 59.09375 4.195312 59.582031 4.550781 C 60.070312 4.910156 60.53125 5.292969 60.976562 5.707031 C 61.417969 6.117188 61.832031 6.554688 62.222656 7.015625 C 62.613281 7.476562 62.976562 7.960938 63.308594 8.464844 C 63.644531 8.964844 63.949219 9.488281 64.21875 10.027344 C 64.492188 10.566406 64.734375 11.121094 64.941406 11.6875 C 65.148438 12.253906 65.324219 12.832031 65.464844 13.421875 C 65.601562 14.007812 65.707031 14.601562 65.777344 15.203125 C 65.847656 15.800781 65.882812 16.40625 65.882812 17.007812 L 65.882812 296.566406 C 65.882812 297.386719 65.816406 298.199219 65.6875 299.003906 C 65.558594 299.8125 65.367188 300.605469 65.109375 301.378906 C 64.855469 302.15625 64.539062 302.910156 64.164062 303.636719 C 63.792969 304.363281 63.363281 305.054688 62.875 305.710938 C 62.390625 306.371094 61.859375 306.984375 61.277344 307.558594 C 60.695312 308.132812 60.070312 308.65625 59.402344 309.132812 C 58.738281 309.605469 58.039062 310.023438 57.308594 310.386719 C 56.574219 310.753906 55.820312 311.054688 55.039062 311.300781 C 45.574219 314.269531 31.5625 318.628906 20.042969 322.230469 Z M 20.042969 322.230469 " fill-opacity="1" fill-rule="nonzero"/></g></g></g></g><g clip-path="url(#3eadb7e6f7)"><g transform="matrix(1, 0, 0, 1, 51, 24)"><g clip-path="url(#780ec2b02b)"><g clip-path="url(#a457f3b10d)"><path fill="#05386b" d="M 0.175781 0.550781 L 312.898438 0.550781 L 312.898438 313.273438 L 0.175781 313.273438 Z M 0.175781 0.550781 " fill-opacity="1" fill-rule="nonzero"/></g></g></g></g><g transform="matrix(1, 0, 0, 1, 111, 74)"><g clip-path="url(#3bde1868b8)"><g fill="#5cdb95" fill-opacity="1"><g transform="translate(0.710117, 203.334173)"><g><path d="M 61.0625 -201.296875 L 61.0625 -106.1875 L 156.171875 -201.296875 L 212.109375 -201.296875 L 113.21875 -102.40625 L 215.359375 0 L 158.875 0 L 83.5 -75.65625 L 61.0625 -53.234375 L 61.0625 0 L 19.1875 0 L 19.1875 -201.296875 Z M 61.0625 -201.296875 "/></g></g></g></g></g><g transform="matrix(1, 0, 0, 1, 75, 74)"><g clip-path="url(#e53ea3e1bd)"><g fill="#edf5e1" fill-opacity="1"><g transform="translate(0.48958, 205.268858)"><g><path d="M 97.765625 0 L 55.4375 0 L 55.4375 -165.21875 L 5.1875 -165.21875 L 5.1875 -203.453125 L 151.296875 -203.453125 L 151.296875 -165.21875 L 97.765625 -165.21875 Z M 97.765625 0 "/></g></g></g></g></g><g transform="matrix(1, 0, 0, 1, 113, 294)"><g clip-path="url(#f75a3387e1)"><g fill="#edf5e1" fill-opacity="1"><g transform="translate(0.81705, 26.097406)"><g><path d="M 11.8125 0 L 6.703125 0 L 6.703125 -19.96875 L 0.625 -19.96875 L 0.625 -24.59375 L 18.296875 -24.59375 L 18.296875 -19.96875 L 11.8125 -19.96875 Z M 11.8125 0 "/></g></g></g><g fill="#edf5e1" fill-opacity="1"><g transform="translate(19.727604, 26.097406)"><g><path d="M 9.609375 -17.03125 C 10.796875 -17.03125 11.921875 -16.804688 12.984375 -16.359375 C 14.054688 -15.910156 14.992188 -15.28125 15.796875 -14.46875 C 16.597656 -13.664062 17.226562 -12.742188 17.6875 -11.703125 C 18.15625 -10.660156 18.390625 -9.53125 18.390625 -8.3125 C 18.390625 -7.125 18.15625 -6.007812 17.6875 -4.96875 C 17.226562 -3.925781 16.597656 -3 15.796875 -2.1875 C 14.992188 -1.382812 14.054688 -0.757812 12.984375 -0.3125 C 11.921875 0.132812 10.796875 0.359375 9.609375 0.359375 C 8.421875 0.359375 7.300781 0.132812 6.25 -0.3125 C 5.207031 -0.757812 4.289062 -1.382812 3.5 -2.1875 C 2.707031 -3 2.082031 -3.925781 1.625 -4.96875 C 1.175781 -6.007812 0.953125 -7.125 0.953125 -8.3125 C 0.953125 -9.925781 1.34375 -11.390625 2.125 -12.703125 C 2.90625 -14.023438 3.953125 -15.078125 5.265625 -15.859375 C 6.578125 -16.640625 8.023438 -17.03125 9.609375 -17.03125 Z M 9.609375 -4.296875 C 10.753906 -4.296875 11.707031 -4.664062 12.46875 -5.40625 C 13.226562 -6.15625 13.609375 -7.125 13.609375 -8.3125 C 13.609375 -9.476562 13.226562 -10.441406 12.46875 -11.203125 C 11.707031 -11.960938 10.753906 -12.34375 9.609375 -12.34375 C 8.523438 -12.34375 7.601562 -11.960938 6.84375 -11.203125 C 6.09375 -10.441406 5.71875 -9.476562 5.71875 -8.3125 C 5.71875 -7.125 6.09375 -6.15625 6.84375 -5.40625 C 7.601562 -4.664062 8.523438 -4.296875 9.609375 -4.296875 Z M 9.609375 -4.296875 "/></g></g></g><g fill="#edf5e1" fill-opacity="1"><g transform="translate(39.067191, 26.097406)"><g><path d="M 18.453125 -8.3125 L 18.453125 0 L 13.796875 0 L 13.796875 -8.3125 C 13.796875 -9.65625 13.457031 -10.660156 12.78125 -11.328125 C 12.113281 -12.003906 11.296875 -12.34375 10.328125 -12.34375 C 9.296875 -12.34375 8.375 -12.003906 7.5625 -11.328125 C 6.75 -10.660156 6.34375 -9.65625 6.34375 -8.3125 L 6.34375 0 L 1.65625 0 L 1.65625 -16.671875 L 6.34375 -16.671875 L 6.34375 -15.515625 C 6.800781 -16.046875 7.457031 -16.429688 8.3125 -16.671875 C 9.175781 -16.910156 9.984375 -17.03125 10.734375 -17.03125 C 12.253906 -17.03125 13.597656 -16.640625 14.765625 -15.859375 C 15.929688 -15.078125 16.835938 -14.023438 17.484375 -12.703125 C 18.128906 -11.390625 18.453125 -9.925781 18.453125 -8.3125 Z M 18.453125 -8.3125 "/></g></g></g><g fill="#edf5e1" fill-opacity="1"><g transform="translate(58.934822, 26.097406)"><g><path d="M 11.421875 -12.34375 L 7.46875 -12.34375 L 7.46875 -7.03125 C 7.46875 -6.082031 7.835938 -5.390625 8.578125 -4.953125 C 9.328125 -4.515625 10.242188 -4.296875 11.328125 -4.296875 L 11.328125 0.359375 C 9.671875 0.359375 8.195312 0.0546875 6.90625 -0.546875 C 5.625 -1.148438 4.613281 -2 3.875 -3.09375 C 3.132812 -4.195312 2.765625 -5.46875 2.765625 -6.90625 L 2.765625 -12.34375 L 0.265625 -12.34375 L 0.265625 -16.671875 L 2.765625 -16.671875 L 2.765625 -18.859375 L 7.46875 -22.25 L 7.46875 -16.671875 L 11.421875 -16.671875 Z M 11.421875 -12.34375 "/></g></g></g><g fill="#edf5e1" fill-opacity="1"><g transform="translate(70.848808, 26.097406)"><g><path d="M 9.609375 -17.03125 C 10.796875 -17.03125 11.921875 -16.804688 12.984375 -16.359375 C 14.054688 -15.910156 14.992188 -15.28125 15.796875 -14.46875 C 16.597656 -13.664062 17.226562 -12.742188 17.6875 -11.703125 C 18.15625 -10.660156 18.390625 -9.53125 18.390625 -8.3125 C 18.390625 -7.125 18.15625 -6.007812 17.6875 -4.96875 C 17.226562 -3.925781 16.597656 -3 15.796875 -2.1875 C 14.992188 -1.382812 14.054688 -0.757812 12.984375 -0.3125 C 11.921875 0.132812 10.796875 0.359375 9.609375 0.359375 C 8.421875 0.359375 7.300781 0.132812 6.25 -0.3125 C 5.207031 -0.757812 4.289062 -1.382812 3.5 -2.1875 C 2.707031 -3 2.082031 -3.925781 1.625 -4.96875 C 1.175781 -6.007812 0.953125 -7.125 0.953125 -8.3125 C 0.953125 -9.925781 1.34375 -11.390625 2.125 -12.703125 C 2.90625 -14.023438 3.953125 -15.078125 5.265625 -15.859375 C 6.578125 -16.640625 8.023438 -17.03125 9.609375 -17.03125 Z M 9.609375 -4.296875 C 10.753906 -4.296875 11.707031 -4.664062 12.46875 -5.40625 C 13.226562 -6.15625 13.609375 -7.125 13.609375 -8.3125 C 13.609375 -9.476562 13.226562 -10.441406 12.46875 -11.203125 C 11.707031 -11.960938 10.753906 -12.34375 9.609375 -12.34375 C 8.523438 -12.34375 7.601562 -11.960938 6.84375 -11.203125 C 6.09375 -10.441406 5.71875 -9.476562 5.71875 -8.3125 C 5.71875 -7.125 6.09375 -6.15625 6.84375 -5.40625 C 7.601562 -4.664062 8.523438 -4.296875 9.609375 -4.296875 Z M 9.609375 -4.296875 "/></g></g></g><g fill="#edf5e1" fill-opacity="1"><g transform="translate(90.188394, 26.097406)"><g><path d="M 18.453125 -8.3125 L 18.453125 0 L 13.796875 0 L 13.796875 -8.3125 C 13.796875 -9.65625 13.457031 -10.660156 12.78125 -11.328125 C 12.113281 -12.003906 11.296875 -12.34375 10.328125 -12.34375 C 9.296875 -12.34375 8.375 -12.003906 7.5625 -11.328125 C 6.75 -10.660156 6.34375 -9.65625 6.34375 -8.3125 L 6.34375 0 L 1.65625 0 L 1.65625 -16.671875 L 6.34375 -16.671875 L 6.34375 -15.515625 C 6.800781 -16.046875 7.457031 -16.429688 8.3125 -16.671875 C 9.175781 -16.910156 9.984375 -17.03125 10.734375 -17.03125 C 12.253906 -17.03125 13.597656 -16.640625 14.765625 -15.859375 C 15.929688 -15.078125 16.835938 -14.023438 17.484375 -12.703125 C 18.128906 -11.390625 18.453125 -9.925781 18.453125 -8.3125 Z M 18.453125 -8.3125 "/></g></g></g><g fill="#5cdb95" fill-opacity="1"><g transform="translate(110.067802, 26.097406)"><g><path d="M 7.46875 -24.59375 L 7.46875 -12.96875 L 19.078125 -24.59375 L 25.921875 -24.59375 L 13.828125 -12.515625 L 26.3125 0 L 19.40625 0 L 10.203125 -9.25 L 7.46875 -6.5 L 7.46875 0 L 2.34375 0 L 2.34375 -24.59375 Z M 7.46875 -24.59375 "/></g></g></g><g fill="#5cdb95" fill-opacity="1"><g transform="translate(136.172943, 26.097406)"><g><path d="M 20.203125 0 L 18.59375 -3.296875 L 6.671875 -3.296875 L 5.078125 0 L -0.203125 0 L 12.78125 -25.03125 L 25.78125 0 Z M 12.578125 -15.578125 L 8.875 -7.921875 L 16.34375 -7.921875 Z M 12.578125 -15.578125 "/></g></g></g><g fill="#5cdb95" fill-opacity="1"><g transform="translate(161.750041, 26.097406)"><g><path d="M 2.34375 -24.59375 L 12.3125 -24.59375 C 14.09375 -24.59375 15.757812 -24.285156 17.3125 -23.671875 C 18.863281 -23.054688 20.226562 -22.191406 21.40625 -21.078125 C 22.582031 -19.960938 23.503906 -18.660156 24.171875 -17.171875 C 24.847656 -15.691406 25.1875 -14.070312 25.1875 -12.3125 C 25.1875 -10.550781 24.847656 -8.921875 24.171875 -7.421875 C 23.503906 -5.929688 22.582031 -4.628906 21.40625 -3.515625 C 20.226562 -2.398438 18.863281 -1.535156 17.3125 -0.921875 C 15.757812 -0.304688 14.101562 0 12.34375 0 L 2.34375 0 Z M 7.46875 -4.625 L 12.34375 -4.625 C 13.78125 -4.625 15.066406 -4.957031 16.203125 -5.625 C 17.347656 -6.300781 18.253906 -7.21875 18.921875 -8.375 C 19.597656 -9.53125 19.9375 -10.84375 19.9375 -12.3125 C 19.9375 -13.8125 19.597656 -15.132812 18.921875 -16.28125 C 18.253906 -17.425781 17.34375 -18.328125 16.1875 -18.984375 C 15.03125 -19.640625 13.738281 -19.96875 12.3125 -19.96875 L 7.46875 -19.96875 Z M 7.46875 -4.625 "/></g></g></g></g></g></svg>